<svg xmlns="http://www.w3.org/2000/svg" viewBox="0 0 32 32" width="32" height="32">
  <defs>
    <linearGradient id="brainGrad" x1="0%" y1="0%" x2="100%" y2="100%">
      <stop offset="0%" style="stop-color:#0096ff;stop-opacity:1" />
      <stop offset="100%" style="stop-color:#00d4ff;stop-opacity:1" />
    </linearGradient>
  </defs>
  
  <!-- Brain/Head shape -->
  <circle cx="16" cy="14" r="10" fill="url(#brainGrad)" stroke="#2c5aa0" stroke-width="1"/>
  
  <!-- Brain pattern -->
  <path d="M8 12c2-1 4-1 6 0s4 1 6 0" stroke="#ffffff" stroke-width="1.5" fill="none" opacity="0.7"/>
  <path d="M9 16c2-1 3-1 5 0s3 1 5 0" stroke="#ffffff" stroke-width="1.5" fill="none" opacity="0.7"/>
  
  <!-- Eyes -->
  <circle cx="12" cy="12" r="1.5" fill="#ffffff"/>
  <circle cx="20" cy="12" r="1.5" fill="#ffffff"/>
  <circle cx="12" cy="12" r="0.8" fill="#0f1b2e"/>
  <circle cx="20" cy="12" r="0.8" fill="#0f1b2e"/>
  
  <!-- Antenna/Signal -->
  <line x1="16" y1="4" x2="16" y2="7" stroke="#00ff88" stroke-width="2" stroke-linecap="round"/>
  <circle cx="16" cy="3" r="1" fill="#00ff88"/>
  
  <!-- Base/Body -->
  <rect x="12" y="24" width="8" height="5" rx="1" fill="#2c5aa0"/>
  <rect x="10" y="26" width="12" height="2" rx="1" fill="#1e3a5f"/>
</svg>
